<?xml version="1.0" standalone="no"?><svg xmlns="http://www.w3.org/2000/svg" viewBox="0 0 1440 320"><path fill="#5000ca" fill-opacity="1" d="M0,96L24,112C48,128,96,160,144,165.3C192,171,240,149,288,138.7C336,128,384,128,432,128C480,128,528,128,576,112C624,96,672,64,720,69.3C768,75,816,117,864,144C912,171,960,181,1008,170.7C1056,160,1104,128,1152,128C1200,128,1248,160,1296,186.7C1344,213,1392,235,1416,245.3L1440,256L1440,0L1416,0C1392,0,1344,0,1296,0C1248,0,1200,0,1152,0C1104,0,1056,0,1008,0C960,0,912,0,864,0C816,0,768,0,720,0C672,0,624,0,576,0C528,0,480,0,432,0C384,0,336,0,288,0C240,0,192,0,144,0C96,0,48,0,24,0L0,0Z"></path></svg>